<svg xmlns="http://www.w3.org/2000/svg" viewBox="0 0 800 600"><defs><style>.cls-1{fill:#1c1c1c;}.cls-2{fill:#f9efef;}</style></defs><g id="Layer_2" data-name="Layer 2"><g id="Layer_1-2" data-name="Layer 1"><rect class="cls-1" width="800" height="600" rx="30.95"/><path class="cls-2" d="M237.84,283.2A15.2,15.2,0,0,1,231.6,282a9.82,9.82,0,0,1-4.32-3.64,10.8,10.8,0,0,1-1.58-6,10.62,10.62,0,0,1,1.12-5.12,9,9,0,0,1,3-3.33,14.63,14.63,0,0,1,4.39-1.9,33.7,33.7,0,0,1,5.18-.91c2.13-.22,3.84-.43,5.14-.63a7.23,7.23,0,0,0,2.84-.89,2,2,0,0,0,.88-1.76v-.15a4.4,4.4,0,0,0-1.42-3.49,5.87,5.87,0,0,0-4-1.24,7.16,7.16,0,0,0-4.36,1.2,5.62,5.62,0,0,0-2.14,3l-9.38-.76a12.8,12.8,0,0,1,2.81-5.77,13.58,13.58,0,0,1,5.42-3.76,20.53,20.53,0,0,1,7.7-1.33,23.3,23.3,0,0,1,5.84.72,15.32,15.32,0,0,1,5,2.21,10.9,10.9,0,0,1,3.44,3.85,11.67,11.67,0,0,1,1.26,5.6v24.66h-9.62v-5.07h-.29a9.94,9.94,0,0,1-2.35,3,10.74,10.74,0,0,1-3.55,2A14.52,14.52,0,0,1,237.84,283.2Zm2.9-7a8.36,8.36,0,0,0,3.95-.89,6.91,6.91,0,0,0,2.69-2.41,6.29,6.29,0,0,0,1-3.45v-3.89a4.85,4.85,0,0,1-1.3.56c-.55.17-1.16.32-1.84.46s-1.37.25-2.05.35l-1.86.28a12.42,12.42,0,0,0-3.12.83,5,5,0,0,0-2.07,1.54,3.83,3.83,0,0,0-.74,2.39,3.63,3.63,0,0,0,1.52,3.15A6.41,6.41,0,0,0,240.74,276.2Z"/><path class="cls-2" d="M266.31,282.51V246h9.83v6.38h.38a9.43,9.43,0,0,1,3.35-5.15,8.86,8.86,0,0,1,5.43-1.75,16,16,0,0,1,1.64.09,11.07,11.07,0,0,1,1.55.26v9a13.26,13.26,0,0,0-2-.38,18.22,18.22,0,0,0-2.31-.17,8.15,8.15,0,0,0-4,1,7,7,0,0,0-2.76,2.68,7.57,7.57,0,0,0-1,3.95v20.68Z"/><path class="cls-2" d="M293.7,282.51V246h9.83v6.38h.39a9.43,9.43,0,0,1,3.35-5.15,8.84,8.84,0,0,1,5.43-1.75,16.18,16.18,0,0,1,1.64.09,11.33,11.33,0,0,1,1.55.26v9a13.71,13.71,0,0,0-2-.38,18,18,0,0,0-2.31-.17,8.12,8.12,0,0,0-4,1,7,7,0,0,0-2.76,2.68,7.57,7.57,0,0,0-1,3.95v20.68Z"/><path class="cls-2" d="M337.62,283.23a18.57,18.57,0,0,1-9.58-2.37,16,16,0,0,1-6.22-6.62,23.43,23.43,0,0,1,0-19.78,16,16,0,0,1,6.22-6.62,20.55,20.55,0,0,1,19.16,0,16,16,0,0,1,6.23,6.62,23.43,23.43,0,0,1,0,19.78,16,16,0,0,1-6.23,6.62A18.57,18.57,0,0,1,337.62,283.23Zm.05-7.86a6.25,6.25,0,0,0,4.21-1.44,8.82,8.82,0,0,0,2.56-3.94,19,19,0,0,0,0-11.38,9,9,0,0,0-2.56-4,6.21,6.21,0,0,0-4.21-1.45,6.39,6.39,0,0,0-4.27,1.45,8.86,8.86,0,0,0-2.6,4,19,19,0,0,0,0,11.38,8.72,8.72,0,0,0,2.6,3.94A6.43,6.43,0,0,0,337.67,275.37Z"/><path class="cls-2" d="M369.45,282.51,359.5,246h10.26l5.66,24.57h.34l5.9-24.57h10.07l6,24.42H398L403.61,246h10.23l-9.92,36.56H393.18l-6.28-23h-.46l-6.28,23Z"/><path class="cls-2" d="M429.36,261.37v21.14H419.22V233.76h9.86V252.4h.42a10.44,10.44,0,0,1,4-5.08,12.21,12.21,0,0,1,6.93-1.85,12.9,12.9,0,0,1,6.65,1.66,11.23,11.23,0,0,1,4.43,4.74,15.62,15.62,0,0,1,1.56,7.36v23.28H442.93V261a7.39,7.39,0,0,0-1.7-5.26,6.23,6.23,0,0,0-4.82-1.88,7.4,7.4,0,0,0-3.66.88,6.16,6.16,0,0,0-2.47,2.56A8.66,8.66,0,0,0,429.36,261.37Z"/><path class="cls-2" d="M494.51,266.82V264a23.19,23.19,0,0,0-1.3-8.15,16.07,16.07,0,0,0-3.66-5.8,15,15,0,0,0-5.48-3.46,19.28,19.28,0,0,0-6.74-1.15,17.88,17.88,0,0,0-9.37,2.37,16.31,16.31,0,0,0-6.18,6.64,23.72,23.72,0,0,0,0,19.91,15.53,15.53,0,0,0,6.26,6.53,19.25,19.25,0,0,0,9.69,2.3,21.17,21.17,0,0,0,8-1.4,14.66,14.66,0,0,0,5.68-3.9A12.78,12.78,0,0,0,494.3,272l-9.37-.62a6.43,6.43,0,0,1-1.53,2.34,6.53,6.53,0,0,1-2.41,1.42,9.49,9.49,0,0,1-3.09.48,8.47,8.47,0,0,1-4.4-1.08,7.11,7.11,0,0,1-2.87-3.05,10,10,0,0,1-1-4.68v0Zm-23.87-9.89a7.59,7.59,0,0,1,2.77-2.83A7.86,7.86,0,0,1,477.5,253a7.55,7.55,0,0,1,3.88,1,6.77,6.77,0,0,1,2.63,2.65,7.72,7.72,0,0,1,.95,3.88H469.62A8.07,8.07,0,0,1,470.64,256.93Z"/><path class="cls-2" d="M511.56,283.2a15.2,15.2,0,0,1-6.24-1.22,9.82,9.82,0,0,1-4.32-3.64,10.8,10.8,0,0,1-1.58-6,10.62,10.62,0,0,1,1.12-5.12,9,9,0,0,1,3-3.33A14.63,14.63,0,0,1,508,262a33.7,33.7,0,0,1,5.18-.91c2.13-.22,3.84-.43,5.14-.63a7.23,7.23,0,0,0,2.84-.89,2,2,0,0,0,.88-1.76v-.15a4.4,4.4,0,0,0-1.42-3.49,5.87,5.87,0,0,0-4-1.24,7.16,7.16,0,0,0-4.36,1.2,5.62,5.62,0,0,0-2.14,3l-9.38-.76a12.8,12.8,0,0,1,2.81-5.77,13.58,13.58,0,0,1,5.42-3.76,20.53,20.53,0,0,1,7.7-1.33,23.3,23.3,0,0,1,5.84.72,15.32,15.32,0,0,1,5,2.21,10.9,10.9,0,0,1,3.44,3.85,11.67,11.67,0,0,1,1.26,5.6v24.66h-9.62v-5.07h-.29a9.94,9.94,0,0,1-2.35,3,10.74,10.74,0,0,1-3.55,2A14.52,14.52,0,0,1,511.56,283.2Zm2.9-7a8.36,8.36,0,0,0,3.95-.89,6.84,6.84,0,0,0,2.69-2.41,6.29,6.29,0,0,0,1-3.45v-3.89a4.85,4.85,0,0,1-1.3.56c-.55.17-1.16.32-1.84.46s-1.37.25-2.05.35l-1.86.28a12.42,12.42,0,0,0-3.12.83,5,5,0,0,0-2.07,1.54,3.83,3.83,0,0,0-.74,2.39,3.63,3.63,0,0,0,1.52,3.15A6.43,6.43,0,0,0,514.46,276.2Z"/><path class="cls-2" d="M553.5,283.11A13.63,13.63,0,0,1,546,281a14.61,14.61,0,0,1-5.34-6.35,24.27,24.27,0,0,1-2-10.32,23.9,23.9,0,0,1,2-10.46,14.6,14.6,0,0,1,5.39-6.26,13.8,13.8,0,0,1,7.4-2.09,11.4,11.4,0,0,1,5.13,1,10.28,10.28,0,0,1,3.33,2.57,13.61,13.61,0,0,1,1.94,3h.31V233.76H574.3v48.75h-10v-5.85h-.43a13.39,13.39,0,0,1-2,3,10.24,10.24,0,0,1-3.36,2.46A11.62,11.62,0,0,1,553.5,283.11Zm3.21-8.07a6.49,6.49,0,0,0,4.16-1.35,8.45,8.45,0,0,0,2.61-3.77,15.87,15.87,0,0,0,.92-5.69,16.12,16.12,0,0,0-.9-5.66,8.23,8.23,0,0,0-2.62-3.72,6.67,6.67,0,0,0-4.17-1.31,6.6,6.6,0,0,0-4.21,1.36,8.34,8.34,0,0,0-2.6,3.76,18.06,18.06,0,0,0,0,11.2,8.45,8.45,0,0,0,2.59,3.81A6.52,6.52,0,0,0,556.71,275Z"/><path class="cls-2" d="M297.29,293.15H243.73a9.75,9.75,0,0,0-9.76,9.76v53.56a9.76,9.76,0,0,0,9.76,9.77h53.56a9.76,9.76,0,0,0,9.77-9.77V302.91A9.76,9.76,0,0,0,297.29,293.15Zm-15,39h-5.6l1.91,14.49a1.74,1.74,0,0,1-1.72,2H264.1a1.76,1.76,0,0,1-1.73-2l1.92-14.49h-5.6a1.73,1.73,0,0,1-1.51-2.6l5.92-10.25,5.9-10.23a1.75,1.75,0,0,1,3,0l5.91,10.23,5.92,10.25A1.73,1.73,0,0,1,282.34,332.14Z"/><path class="cls-2" d="M384.27,293.15H330.7a9.76,9.76,0,0,0-9.77,9.76v53.56a9.77,9.77,0,0,0,9.77,9.77h53.57a9.76,9.76,0,0,0,9.76-9.77V302.91A9.75,9.75,0,0,0,384.27,293.15Zm-13.46,36.69-5.91,10.25L359,350.33a1.74,1.74,0,0,1-3,0l-5.91-10.24-5.91-10.25a1.74,1.74,0,0,1,1.51-2.6h5.6l-1.92-14.49a1.75,1.75,0,0,1,1.73-2H363.9a1.74,1.74,0,0,1,1.71,2l-1.9,14.49h5.6A1.73,1.73,0,0,1,370.81,329.84Z"/><path class="cls-2" d="M471.22,293.15H417.66a9.75,9.75,0,0,0-9.76,9.76v53.56a9.76,9.76,0,0,0,9.76,9.77h53.56a9.77,9.77,0,0,0,9.78-9.77V302.91A9.76,9.76,0,0,0,471.22,293.15Zm-7.87,43a1.74,1.74,0,0,1-2,1.73l-14.47-1.92v5.6a1.75,1.75,0,0,1-2.62,1.52l-10.23-5.92-10.25-5.91a1.75,1.75,0,0,1,0-3l10.25-5.9,10.23-5.92a1.75,1.75,0,0,1,2.62,1.51v5.6l14.47-1.92a1.76,1.76,0,0,1,2,1.73Z"/><path class="cls-2" d="M558.2,293.15H504.63a9.75,9.75,0,0,0-9.76,9.76v53.56a9.76,9.76,0,0,0,9.76,9.77H558.2a9.76,9.76,0,0,0,9.76-9.77V302.91A9.75,9.75,0,0,0,558.2,293.15Zm-6.15,38.05-10.24,5.91L531.57,343a1.74,1.74,0,0,1-2.61-1.52v-5.6l-14.49,1.92a1.73,1.73,0,0,1-2-1.73V323.28a1.75,1.75,0,0,1,2-1.73L529,323.47v-5.6a1.74,1.74,0,0,1,2.61-1.51l10.24,5.92,10.24,5.9A1.75,1.75,0,0,1,552.05,331.2Z"/></g></g></svg>