<?xml version="1.0" encoding="utf-8"?>
<!-- Generator: Adobe Illustrator 26.0.3, SVG Export Plug-In . SVG Version: 6.00 Build 0)  -->
<svg version="1.1" id="Layer_1" xmlns="http://www.w3.org/2000/svg" xmlns:xlink="http://www.w3.org/1999/xlink" x="0px" y="0px"
	 viewBox="0 0 300 300" style="enable-background:new 0 0 300 300;" xml:space="preserve">
<style type="text/css">
	.st0{fill:#0E00CB;}
	.st1{fill:#FFFFFF;}
</style>
<g>
	<rect class="st0" width="300" height="300"/>
	<g>
		<g>
			<path class="st1" d="M268.3,196.3v41.6h-41.6v-41.6h13.5c-7.5-34.8-34.8-62.4-69.4-70.4v10.6h-41.6v-10.6
				c-34.7,8-61.9,35.6-69.4,70.4h13.5v41.6H31.7v-41.6h12.2c5.6-30.8,24.4-57.1,50.3-72.8H74.4c-1.1,2.6-2.6,5-4.6,6.9
				c-3.8,3.7-9,6.1-14.7,6.1c-11.5,0-20.8-9.3-20.8-20.8c0-5.7,2.3-10.9,6.1-14.7c3.8-3.7,9-6.1,14.7-6.1s10.9,2.3,14.7,6.1
				c1.9,1.9,3.5,4.3,4.6,6.9h54.8v-13h41.6v13H223c1.1-2.6,2.6-5,4.6-6.9c3.8-3.7,9-6.1,14.7-6.1s10.9,2.3,14.7,6.1
				c3.7,3.8,6.1,9,6.1,14.7s-2.3,10.9-6.1,14.7c-3.8,3.7-9,6.1-14.7,6.1c-8.7,0-16.2-5.4-19.3-13h-17.2c25.9,15.7,44.7,42,50.3,72.8
				H268.3z"/>
		</g>
	</g>
</g>
</svg>
