<?xml version="1.0" encoding="utf-8"?>
<!-- Generator: Adobe Illustrator 26.0.3, SVG Export Plug-In . SVG Version: 6.00 Build 0)  -->
<svg version="1.1" id="Layer_1" xmlns="http://www.w3.org/2000/svg" xmlns:xlink="http://www.w3.org/1999/xlink" x="0px" y="0px"
	 viewBox="0 0 1200 1200" style="enable-background:new 0 0 1200 1200;" xml:space="preserve">
<style type="text/css">
	.st0{fill:#FFFFFF;}
</style>
<g>
	<path d="M1044.7,1200h-20.9c0-0.1-0.1-0.2-0.1-0.2L77,1200.2c0-0.1,0-0.1,0.1-0.2H66.2c10.5-42.1,23-89.9,32.2-126.2
		c9.8-39.6,22-83.9,31.8-123.9c14.1-52.2,31.8-120,76.1-154.5c14.5-9.4,30.6-16.1,45.9-22c33.7-12.5,68.2-22,102.7-32.5
		c9.3-3.5,19.1-6.4,29-9.1c0.3-18.1,1.5-36.8,15.7-50.1c5.9-4.7,11.8-7.5,18-10.2c8.2-3.2,16.2-5.1,24.3-6.3
		c3.1-0.5,6.2-0.9,9.3-1.2c0.9-0.1,1.8-0.2,2.7-0.3c3.9-0.4,7.9-0.8,11.9-1.2c9.7,0.1,19.5,0.2,29.2,0.5c2.3,0,4.5,0.1,6.8,0.2
		c40.9,1.2,81.9,3.9,122.8,8.8c7.8,1,15.6,2,23.4,3.1c8.1,1.1,16.2,2.3,24.2,3.7c15.5,2.7,30.9,6,46,10.5l2.4,0.8l2.8,1.2
		c1,0.5,2,1,2.9,1.6c11.7,7.2,17.2,20.4,24.5,31.3c2.1,2.6,4,5.3,5.4,8.1c1,1.8,1.8,3.7,2.4,5.7c0.7,2.2,1.1,4.5,1.2,7
		c0,1.4,0,2.8-0.1,4.2c0,1.1,0,2.3-0.1,3.4c-0.1,4.7-0.1,9.4-0.1,14.1c37.9,12.1,75.7,25,110.5,44.9c11.8,6.7,23.1,14.1,34.1,22
		c12.9,9.8,21.2,20.8,29.4,33.7c29.8,46.7,39.2,100.4,49,153.7C996.1,1082.7,1018.2,1142.6,1044.7,1200z"/>
	<path class="st0" d="M658.4,890.3c0.4,0.4,0.4,0.4,0.8,0.8c0-0.4,0-0.8,0-0.8S658.8,890.3,658.4,890.3z"/>
	<path class="st0" d="M861.2,396L861.2,396c-0.2,3.8-0.4,7.8-0.7,12c-0.9,16.4-2,36.4-2.8,61.8c-0.4,12.6-1.3,26-2.6,39.7
		c-0.3,2.8-0.5,5.5-0.8,8.3c-4.8,45.6-13.9,94.3-25.6,133c0,0,0,0,0,0c-9.2,30.5-20.1,54.8-31.7,66.4c-7.8,7.7-21.2,14.9-38.1,20.5
		c-2.3,0.8-4.6,1.5-7,2.2c-2.6,0.8-5.3,1.5-8,2.2c-3.6,0.9-7.3,1.7-11,2.4l11.9,99.3c-8.2,40.4-81.6,64.7-171.4,28.2
		C479.9,834.5,439.5,744.7,429.3,718c10.3-19.2,17.3-37.3,21.9-54.1c1.5-5.5,2.8-10.9,3.9-16.1v0c1.2-21.6,0.6-43.2,0.2-62.9
		c0-0.6,0-1.1,0-1.7c0-0.3,0-0.8,0-1.2c-0.9-0.3-1.7-0.6-2.5-0.8c-6.1-8.2-9.5-7-13.3-5.3h0c-0.9-0.4-1.7-0.8-2.6-1.2
		c-11.6-5.6-21.2-12.2-29.2-19.6c0,0,0,0,0,0c0,0,0,0,0,0c0,0-0.1-0.1-0.1-0.1c-11-14.5-21.8-33.4-30-57.3c-0.1-0.3-0.2-0.6-0.3-0.9
		v0c-2.7-8-5.1-16.6-7.1-25.8c0.6-3.8,1.4-7.5,2.5-11.1c3.4-11.4,9.4-22.1,18.4-30.9c7.1-6.3,16.9-11,26.7-11c3.1,0,7.8-0.8,11,0
		c13.2,0.6,25.9,6,35.6,14.8l47.8-1.6c0.3-2.2,0.7-4.5,1-6.9c1.7-13.9,3.6-27.7,5.8-41.5l5.7-35.4c3.1-19.7,16.1-36.4,34.3-44.3
		c0.5-0.2,1.2-0.5,2.2-0.9c20.9-8.3,43.3-12.4,65.8-12.2L661,290l132,0.2l23.7-1.4c9.8-0.6,19.2,3.2,25.8,9.9c2.7,2.8,5,6,6.6,9.7
		c6.5,14.5,12.7,30.8,9.4,46.7c0.6-0.6,1.2-1.1,1.8-1.7c0.8-0.8,1.6-1.5,2.3-2.3C863,363.1,862.3,376.8,861.2,396z"/>
	<path d="M455.3,532.2c-9-5.1-15.3-13.7-15.7-24.3c0.4-7.8,1.6-16.9-0.4-24.7c-1.2-7.5-9-9.4-14.9-9c-6.3,1.2-10.2,9-11.4,15.3
		c0,0.4-0.4,1.6-0.4,2c-0.4,2-3.5,2-4.3,0c-5.1-15.3,6.3-32.2,22.7-30.2c23.1,1.6,26.3,25.9,22,44.3c-2.4,7.8,0.8,14.9,5.1,21.6
		l0.8,1.2C460.8,530.7,457.6,533.8,455.3,532.2z"/>
	<path d="M740,623.9c-22.5,26.4-71.7,12.2-87.2-15.4c-1.9-3.3,1.7-6.9,4.9-5.6c7,2.8,13.2,5.7,19.7,7.8c18.8,6.3,38.2,11,57.9,7
		C739.2,616.5,742.4,620.9,740,623.9z"/>
	<path d="M880.2,158.3L849.1,112c-11.6-17.2-27.8-31-47-38.9c-22.6-9.4-47.7-11.3-69.4-0.7c-14.2,6.9-25.8,18.4-39.4,26.4
		c-28.1,16.5-62.4,16.9-94.9,15.6c-25.9-1-52.6-2.6-77.6,3c-6.3,1.4-12.6,3.3-18.7,5.8c-29.3,11.9-51.6,36.1-72.5,59.9
		c-3.4,3.9-6.8,7.8-10.2,11.7c-13.5,15.7-25.6,32.6-36.1,50.4c-10.5,17.8-19.5,36.5-26.7,55.9c-0.5,1.6-1,3.1-1.5,4.7
		c-27,87.8-9.7,183.3,45.3,256.8c18,24,34.4,45.5,43.6,64.1c-0.2,12.8-0.8,25.6-1.9,38.3c3.1-0.5,6.2-0.9,9.3-1.2
		c1.5-5.5,2.8-10.9,3.9-16.1v0c1.2-21.6,0.6-43.2,0.2-62.9c0.8,0.2,1.7,0.4,2.5,0.6c0.7,0.2,1.4,0.3,2.1,0.5
		c2.8,0.4,3.9-3.9,1.2-4.7c-0.1,0-0.2-0.1-0.2-0.1c-1.3-0.5-2.6-1-3.9-1.6c-0.7-0.3-1.4-0.6-2.1-0.9c-5-2.1-9.8-4.3-14.4-6.8
		c-4.5-2.4-8.9-5-13.1-7.9c-9.4-6.5-17.8-14.3-24.6-23.2c-4.4-6.6-8.3-13.3-11.8-20.4c-10.9-26.5-9.7-59,10.5-79.2
		c5.1-4.7,10.6-7.1,17.2-7.4c2.4,0,6.3-0.8,8.6-0.4c23-0.3,40.8,16.4,51,36c0,4.4,0.3,16.1,0.7,31.1c0.3,12.8,0.7,27.8,1.1,42.7
		c0.9,32.6,1.9,64.1,2,67.4c0.9,11.1,1.9,19.8,3.5,27.2c2,9.6,4.8,17.1,9.2,25c1.5,2.7,3.1,5.4,5,8.2c1.5,2.3,3.2,4.8,5,7.4
		c0.2,0.3,0.4,0.5,0.6,0.8c12.3,17.2,45.7,54.5,91.1,74.5c15.5,6.8,32.3,11.6,50.2,12.9c8.3,0.6,16.2,1,23.7,1.3
		c1.6,0.1,3.2,0.1,4.7,0.1c2.8,0.1,5.5,0.1,8.2,0.1c2.8,0,5.6,0,8.3-0.1c0.5,0,1,0,1.5,0c1.8-0.1,3.6-0.1,5.3-0.2
		c0.6,0,1.2-0.1,1.7-0.1c9.6-0.6,18.6-1.7,27-3.5c2.5-0.5,4.9-1.1,7.3-1.8h0c2.5-0.7,5-1.5,7.4-2.3c0.4-0.1,0.8-0.3,1.2-0.4
		c2.8-1,5.6-2.1,8.3-3.3s5.4-2.6,8.1-4c5.3-2.9,10.4-6.3,15.4-10.1c0,0,0,0,0,0c8.3-4.2,16.2-9.3,23.5-15.5
		c13-10.6,22.8-25.1,27.8-41.2c16.5-52.9,24.3-107.8,30.2-162.7c0.3-2.1,0.5-4.2,0.8-6.4c12.8-6.2,19.6-20.3,18.1-35.6
		c0-16.9-0.4-33.3,0.4-50.2c2.2-12-2.5-24.2-11.2-31.8c0.7-11.3,1.7-22.5,2.9-33.7c0.7-8.1,2.2-16.1,3-24.2
		c10-14,15.9-30.6,17.2-47.9l6.3-81.8c0-0.1,0-0.3,0-0.4C895.8,192.3,890.6,173.8,880.2,158.3z M513,424c1.7-13.9,3.6-27.7,5.8-41.5
		l5.7-35.4c3.1-19.7,16.1-36.4,34.3-44.3c0.5-0.2,1.2-0.5,2.2-0.9c20.9-8.3,43.3-12.4,65.8-12.2L661,290l132,0.2l23.7-1.4
		c9.8-0.6,19.2,3.2,25.8,9.9c1.9,5.4,3.5,10.8,5,16.3c2.3,7.8,3.5,16.5,6.7,24.3c0,2.7-0.4,9-0.4,11.8c0,14,0.5,27.9,0.8,41.7
		c-1.4-0.5-2.9-0.9-4.4-1.2c-0.2-0.3-0.5-0.5-0.8-0.8c-18-18.6-61.1-18-77.6-10.4c-5.3,2.5-9.6,6.7-12.2,10.8
		c-5.2,8.2,0.2,16.8,9.4,16c0.2,0,0.5,0,0.7-0.1c-2.5,3.9-4.2,8.4-4.9,13c0,0.5-0.1,0.9-0.1,1.4c-0.5-0.1-1-0.1-1.5-0.2
		c-10.9-0.7-21.7,0.9-31.7,4.9c-3.4-11.7-11.7-21.5-22.1-27.4c8.1-2,12.1-9,7.8-16.1c-3.3-4.5-7.8-8.9-14.7-12.1
		c-20.6-8.4-92.4-10.1-127,8.6c-12.1,6.8-4,10.4,13.7,12.6c-20.2,2.2-37.6,18.1-41.9,38l-35.2,1.2C512.4,428.7,512.8,426.4,513,424z
		 M725.9,478.9c-0.4,20.4-19.2,38-39.6,37.2c-11.8,0-71.8-0.8-83.1-0.8h-8.2c-16.9,0-32.5-12.6-36.5-29c-2-7.8-0.8-22.8-1.2-31.4
		v-12.5c-1.6-21.2,16.5-40.4,37.6-40.4c17.6-0.4,74.1-0.8,91-1.2c18.5-0.6,33.4,12,38.4,28.6c-2.7,2.7-1.4,7.4,1.7,9
		c0.2,2.5,0.2,5-0.1,7.5C725.9,457,726.3,468.3,725.9,478.9z M765.9,642.9v1.2c-1.2,11-4.7,23.1-15.7,29.8
		c-7.2,4.5-15.8,7.3-24.9,8.8c-0.6,0.1-1.1,0.2-1.7,0.3c-4.8,0.7-9.4-1.7-11.6-6.1c-2-4.1-3.7-8.5-4.9-12.6c-1.5-4.6-2.5-9-3.2-12.3
		c-0.3-1.3-2.1-1.5-2.6-0.2c-0.7,1.7-1.7,3.4-2.9,5.1c-4.8,6.9-12.9,13.7-21,19.3c-1.5,1.1-3.2,1.9-5,2.5c-0.7,0.2-1.4,0.4-2.1,0.6
		c-1.4,0.3-2.8,0.4-4.2,0.4c-1.7,0-3.4-0.2-5.1-0.6c-4.9-1.2-9.2-2.6-12.9-4.1c-18.3-7.5-23-18.3-24.2-23.8
		c-1.5-18.6-0.1-35.4,3.1-47.7c2-7.7,4.7-13.6,7.9-17c20.4-22.4,50.2,3.5,82.4,5.9c31.8,2.4,44.7-17.6,47,17.7
		C765.1,618.5,766.3,633,765.9,642.9z M751.5,558.8c-23.2-2.2-45.7-8.9-46.8-9.2c0,0,0,0,0,0c-41.2-13.7-93-27.5-109.8,27.8
		c0,0,0,0,0,0.1c-0.6,2-2,3.6-3.7,4.5c-1.2,0.7-2.7,1-4.1,0.9c-25.3-1.5-44.8-14.4-58.9-28.7c-19-19.4-28.1-41.5-28.1-41.5
		c-4.2-20.9-9.5-35-14.3-41.3v0c-0.4-2-0.9-4-1.4-6c6.8,4.6,17,5.8,24-17.2c7.3,0.2,14.6,0.2,21.9,0.2l11.4-0.4
		c1.7,0.1,3.2,0.1,4.5-0.2c0,7.9,0.1,16.5-0.2,23.3c-2.8,29.4,19.6,55.3,49.4,54.9c17.2-0.4,72.9-0.8,91-1.2
		c24.7,0.4,46.7-20.8,47.1-45.5V446c0-2.6,0.1-5.5,0-8.5c6.1-2.1,12.3-3.4,18.8-4.1c4.1-0.2,8.2-0.5,12,0.1c0,8.9,0.5,17.7,0.5,26.6
		c1.7,7,3.8,13.9,6.3,20.7c3.3,12.2,8.2,23.9,14,35c2.7,4.7,4.3,9.4,3.1,14.9c-0.1,0.5-0.2,1.1-0.3,1.6
		C784.6,549.1,768.6,560.4,751.5,558.8z M839.3,569.8c-6.9,8.5-20,19.3-29.5,22.4c-4.5,1.5-9.2-1.5-9.8-6.1
		c-0.2-1.6-0.5-3.2-0.7-4.8c-1.4-8.3-5.3-20.4-11.3-23.9c10.2-9.2,16.4-22.3,13.8-36.1c4,0,14.4-0.8,18.7-0.8
		c8.2-0.4,16.5-0.4,25.1-0.8c0.6-0.1,1.2-0.1,1.9-0.2C845.1,536.3,842.5,553.1,839.3,569.8z M848.4,511.3L848.4,511.3
		c-0.8,0.1-1.7,0.1-2.5,0.1c-11.8,0-25.5-0.8-37.2-1.2c-2.4,0-6.1,0-9.2-0.3c-6.1-8.9-10.9-18.4-15-28.4c1.1,0.3,2.2,0.5,3.4,0.5
		c8.6,0.4,16.1-6.3,16.5-14.9l0.4-10.2c0.1-1.3-0.1-2.6-0.3-3.9c3.2,1.6,6.2,3.9,8.5,6.6c1.6,2,5.1,0,4.3-2.4
		c-2-7.5-7.1-13.7-14.1-16.9c-7.9-3.7-18.8-2.8-25.9,2.5c0-1.3,0-2.7,0-4c3.7-0.5,6.2-5.5,2.4-8.7l-2.4-2
		c-0.3-8.1,2.9-16.5,9.8-21.2c1.2-0.8,2.3-1.4,3.6-1.9l0,0h0c14.7-0.9,29.1-1.3,40.3-2.2h0l13.3-0.2c3.8-0.2,7.3,0.5,10.5,1.8
		c0.1,4.2,0.1,8.5,0.1,12.7C854.4,448.7,852.2,480.1,848.4,511.3z M870.2,430.3c0.8,16.9,0.4,33.3,0.4,50.2c0,3.1,0,8.6-0.8,11.8
		c-1.4,6.5-5.7,12-11.2,15.5c3.2-31.8,3.9-64,5.6-96C868.3,416.7,870.6,423.3,870.2,430.3z"/>
	<path d="M661.6,455.4c-1.6,0.8-2.4,0.4-3.5-0.4c-4-2.7-8.1-5-12.3-7c0,0.7,0,1.4,0,2.1l-0.4,11c-0.4,9-8.2,16.1-17.7,15.7
		c-9.4-0.4-16.5-8.2-15.7-17.6l0.4-11c0.1-1.4,0.3-2.8,0.7-4.1c-4.3,0.9-8.4,2.5-11.1,5.5c-1.2,1.6-3.9,1.2-3.9-1.2
		c0.4-7.8,7.1-12.9,13.3-16.1c12.2-6.3,29-5.1,40,3.1C655.3,437.7,668.6,452.2,661.6,455.4z"/>
</g>
</svg>
