<?xml version="1.0" encoding="utf-8"?>
<!-- Generator: Adobe Illustrator 26.0.3, SVG Export Plug-In . SVG Version: 6.00 Build 0)  -->
<svg version="1.1" id="Layer_1" xmlns="http://www.w3.org/2000/svg" xmlns:xlink="http://www.w3.org/1999/xlink" x="0px" y="0px"
	 viewBox="0 0 1200 1200" style="enable-background:new 0 0 1200 1200;" xml:space="preserve">
<style type="text/css">
	.st0{fill:#FFFFFF;}
</style>
<g>
	<g>
		<polygon class="st0" points="682.9,778.7 682.9,778.8 682.9,778.7 		"/>
	</g>
	<g>
		<polygon class="st0" points="694.2,785.8 694.1,785.8 694.2,785.8 		"/>
	</g>
	<g>
		<path class="st0" d="M707.8,810.5L707.8,810.5C707.8,810.5,707.8,810.5,707.8,810.5C707.8,810.5,707.8,810.5,707.8,810.5z"/>
	</g>
	<g>
		<path d="M963.9,976.7c-0.6-6.7-2.7-13.2-4.3-19c-1.2-3.7-2.6-7.3-4-10.9c0,0,0-0.1,0-0.1c-1.4-4.6-2.9-9-4.4-13.1
			c9.9-6.5,10.2-52.1,1.7-66.5c-8.2-14.5-94.1-83.9-112.2-85.9c-8.2-0.9-16.5,0.4-23,2.1c4.5-14.2,8.6-26.8,11.6-35.8
			c2.8-8.2-1.2-17.3-9-20.4l-1-0.4c1.4-2.3,2.5-4.7,3.4-7.4c1.6-5.1,2.3-9.4,3.1-14.1c3.1-22,3.1-44.7,5.1-66.3
			c8.6-68.6,31-137.3,32.9-208.6c0.2-11.5,1.5-22.7,3-33.9c8.2-0.9,18.8-7.4,20.5-9.6c7.8-9.8,13.3-20.8,9.4-33.7
			c22-19.2,39.2-35.7,39.2-67.8c0-49.4-33.3-90.6-78.4-103.5c2.3-9.8,2.7-20,0.4-30.6c-7.8-34.1-38.4-58-73.3-55.7
			C771,96,758,101.1,747.5,109c-15.7-43.1-38.8-58-85.5-60.8c-24.3-1.2-68.6,7.1-82,52.9c-14.1-11.8-34.1-17.7-61.6-17.7
			c-47.8,0-87.1,37.7-89.4,85.1c-7.5-2.4-15.7-3.5-23.9-3.1c-31.8,2-57.6,27.8-60,59.6c-0.8,10.6,1.2,20.8,5.1,30.2
			c-44.7,4.7-79.6,42.7-79.6,88.6c0,34.5,19.6,64.7,48.6,79.6c-10.6,4.3-25.9,25.1-28.6,42.8c-4.7,30.2,8.6,56.5,27.4,66.7
			c-2,6.3-2.8,13.7-0.4,21.2c3.5,12.9,14.1,23.1,27.1,25.9c7.8,1.6,15.3,0.8,22-2c6.3,13.3,14.1,21.6,20.4,26.7
			c15.3,12.6,40.8,16.5,54.2,8.9c0.3,0.2,0.6,0.3,1,0.4c0.8,3.2,1.3,6.4,1.7,9.5v10.2c-0.2,15.8-1,31.6-2.7,47.3
			c-9.7-1.2-19-2.1-27.6-2.9l-1.5-13.4c-15.1,1.2-50.6,9.5-51.7,9.8c0,0,0,0,0,0c0,16.5,1.8,39.6,4.2,63.2v0
			c-20.3,5.1-39.5,11.3-43.8,17.2c-0.9,1.2-1.8,2.3-2.7,3.5c-13.2-6.2-34.6-15.3-44.7-15.3c-15.3,0-104.3,54.9-116.5,83.5
			c-8.9,21-2.4,57.8,1.7,75.8c-6.1,22.9-10.9,49.7-15.4,81.1c-12.5,86.6-39.3,167.2-58.2,216.5h166l-11.6-95.5
			c-0.1-0.8,0.5-1.6,1.3-1.7c0.8-0.1,1.6,0.5,1.7,1.3l11.6,95.7c0,0.1,0,0.1,0,0.2h444.8c-0.5-14.7-1-29.4-1.8-44.2
			c-0.8-16.2-2-32.5-4-48.7c0-0.2,0-0.4-0.1-0.6c-0.1-3.1-0.1-6.3-0.1-9.4c0.1-3.9,0.3-7.8,0.6-11.6c0.1-0.9,0.1-1.8,0.2-2.7
			c0.7-7.6,1.8-15.1,3-22.6c0.6-3.4,1.2-6.8,1.8-10.1v0c0.4-1.9,0.7-3.8,1.1-5.7c-11.9-11.4-27.1-25.1-44-40
			c-39.2-34.8-87.2-76-121-108c1.1,0.7,2.2,1.3,3.3,1.9c0.7,0.4,1.4,0.8,2.2,1.1c0,0,0,0,0.1,0c3.1,1.6,6.3,3.3,9.6,4.9
			c38.5,18.9,85.5,33.6,126.6,22.6c18.1-5.1,34.9-17.8,42.3-35.2c1-0.3,2.1-0.7,3.1-1c0.4-0.2,0.9-0.3,1.3-0.5
			c0.1,0,0.3-0.1,0.4-0.1c1.4,14.5,0.6,60.4-7.4,103.3c-3.1,16.3-7.2,32.2-12.6,45.7c1.2,0.3,2.1,1.3,1.9,2.8
			c-0.4,2.4-0.7,4.8-1.1,7.2c-0.5,3.7-1,7.3-1.5,11c-1,7.5-1.8,15.1-2.2,22.7c0,0.5-0.1,1.1-0.1,1.6c-0.2,3.9-0.3,7.8-0.2,11.6
			c0,3.3,0.2,6.7,0.4,10c0,0.1,0,0.1,0,0.2c3.7,23.2,5.8,46.4,7.7,69.7c0.7,8,1.3,16.1,2,24.1H940v-0.1c1.9-31.4-1.6-55.3-4.4-74.5
			c-0.7-4.6-1.3-9-1.8-13.1c-3.5-28.7,8.2-57.7,8.3-58c0.3-0.8,1.2-1.1,2-0.8c0.8,0.3,1.1,1.2,0.8,2c-0.1,0.3-11.6,28.6-8.1,56.5
			c0.5,4.1,1.1,8.4,1.8,13c2.8,19.3,6.4,43.3,4.4,75h36.1c0.2-8.3,0.5-18.1,0.9-29.4C984.1,1089.7,975.6,1024.6,963.9,976.7z
			 M226.3,800.8c-19.8,11.9-34.5,26.9-45.9,46.4c-0.9,1.5-1.8,3-2.6,4.6c0.8-1.7,1.7-3.3,2.6-5c0.3-6.9,1.1-13.1,2.8-17.4
			c6.3-15.7,77.2-62,83.5-60.8c2.1,0.3,7.6,3,13.9,6.6c0,0,0,0,0,0c0.3,0.2,0.5,0.3,0.8,0.5C261.5,782.7,242.5,791,226.3,800.8z
			 M760,1036.1c-2.3,0-4.5-0.6-6.4-1.7c-2.5-1.5-4.5-3.8-5.6-6.5c-0.6-1.5-0.9-3.1-0.9-4.7c0-4.9,2.8-9.2,6.8-11.4
			c1.8-1,3.9-1.5,6.1-1.5c0.2,0,0.5,0,0.7,0c6.8,0.4,12.2,6,12.2,12.9C772.9,1030.2,767.2,1036.1,760,1036.1z M806.7,714.1
			c-0.9,2-2.1,3.9-3.4,5.7c-7.3,9.8-20.8,16.6-36.3,21.3h0c-24.4,7.5-53.6,9.8-71.3,10.6c-0.6,0-1.1,0.1-1.7,0.1
			c-2.4,0.1-4.9,0.2-7.3,0.2h0c-2,0.1-4,0.1-6,0.1c0,0,0,0,0,0c-0.7,0-1.4,0-2.1,0c-31.7,0-61.2-4.4-88.5-14.7
			c-20.3-9.6-38.3-21.5-54-30.8c-0.3-0.2-0.6-0.4-0.9-0.6c0,0,0,0.1,0,0.2c-0.3-0.2-0.6-0.5-0.9-0.7c-4.1-3.3-8.2-6.8-12.2-10.5
			c0,0,0,0-0.1,0c-0.1-0.1-0.3-0.3-0.4-0.4c-0.5-0.4-0.9-0.8-1.3-1.3l0,0c-3.5-3.4-7-6.9-10.5-10.6c-2-2.4-5.1,0.4-3.5,2.8
			c1.7,2.4,3.5,4.8,5.3,7.1c7.9,10.1,16.4,19.1,25.4,27c0,0,0-0.1,0-0.1c0.1,0.1,0.1,0.2,0.2,0.3c10,14.4,20.1,26.8,30.3,37.3h0
			c32.4,33.5,66.2,49.1,103.2,56c0,0,0,0,0,0c6.7,1.3,13.5,2.2,20.4,3c0,0,0,0,0,0c1.6,0.2,3.2,0.3,4.8,0.5c0.2,0.4,0.4,0.7,0.6,1.1
			c0.5,0.9,1,1.7,1.4,2.5c2.4,4.2,4.7,7.7,8.7,11.2c0.2,0.2,0.3,0.3,0.5,0.4c1.2,0.8,2.3,1.2,3.9,0.8c0.1,0,0.2,0,0.4-0.1
			c2,8.6,3.1,16.5,3.3,23.9c0,0,0,0,0,0c0.3,9.7-1,18.3-3.8,25.7c-0.1,0.2-0.1,0.4-0.2,0.6c0,0.1-0.1,0.2-0.1,0.3c0,0,0,0.1-0.1,0.1
			c-0.2,0.4-0.4,0.9-0.5,1.3c-0.1,0.2-0.2,0.5-0.3,0.7c-0.1,0.2-0.2,0.5-0.3,0.8c-0.1,0.2-0.2,0.5-0.4,0.7c-0.1,0.2-0.2,0.5-0.4,0.7
			c-0.1,0.2-0.2,0.5-0.4,0.7c-1,1.9-2.2,3.7-3.5,5.5c-0.1,0.2-0.3,0.4-0.5,0.6c-0.7,0.8-1.3,1.6-2,2.4c-11,12.2-29.4,18.9-55,19.6
			c-36.5,0-73-10.2-105.2-27.9c-1-0.5-1.9-1.1-2.9-1.6c-0.2-0.1-0.3-0.2-0.4-0.2c-1-0.6-1.9-1.1-2.9-1.7c-1-0.6-1.9-1.1-2.9-1.7
			c0,0,0,0,0,0c-4-2.5-8-5.1-11.9-7.8c0,0,0,0,0,0c-4.2-2.9-8.3-6-12.3-9.2c-1.8-1.5-3.6-3-5.4-4.5c-1.4-1.2-2.9-2.5-4.3-3.7
			c-1.2-1-2.4-2.1-3.5-3.2c0,0,0,0,0,0c-0.3-0.2-0.6-0.5-0.8-0.8c-12-11.1-22.7-23.5-32.1-36.8c-10.6-14.5-20-30.6-28.2-47.1
			c-1.1-1.8-2.9-2.1-4.3-1.5c-0.1,0-0.2,0.1-0.2,0.1c-0.1,0-0.2,0.1-0.3,0.2c-1.8-3.9-3.3-7.5-4.6-10.6c0,0,0.1-0.1,0.1-0.1
			c0.1-0.1,0.2-0.1,0.3-0.2c0,0,0,0,0,0c2.5-3.3,4.8-6.6,6.9-10.2c0.8-1.3,1.5-2.6,2.3-4c10-18.2,15.5-39.2,18.5-61.1
			c4.1-30.2,3.2-61.8,2.6-89.4c1.5,0.4,3.1,0.7,4.7,1.1c0.6,0.1,1.2-0.1,1.6-0.3c1.5-1,1.7-3.8-0.4-4.4c-0.1,0-0.2-0.1-0.2-0.1
			c-1-0.4-1.9-0.8-2.9-1.1c-1-0.4-2.1-0.9-3.1-1.3c-4-1.7-7.8-3.4-11.6-5.3c-0.9-0.4-1.7-0.9-2.6-1.3c-0.1,0-0.1-0.1-0.2-0.1
			c-4.5-2.4-8.9-5-13.1-8c-10.2-7.1-19.2-15.7-26.3-25.5c-20.4-27.8-24.7-72.2,0.4-97.2c5.1-4.7,10.6-7.1,17.2-7.5
			c2.4,0,6.3-0.8,8.6-0.4c26.3-0.4,45.9,21.6,54.9,44.7c0.3,0.8,0.9,1.3,1.6,1.4c1.3,0.2,2.8-0.6,2.8-2.2c-0.1-1.3-0.3-2.6-0.6-3.9
			c49.4-36.5-23.8-157.8,53.9-194.2c70.2-32.5,143.9,16.9,234.1,29c25.5,3.6,49.9-14.9,66.3-15.5c3.3,8.7,6.1,17.7,8.2,26.8
			c4.3,16.9,7.8,32.2,7.1,49.8c0,17.7,0,35.3-0.4,52.9c-0.4,34.9-7.1,69.4-14.9,103.5c-7,30.2-18.8,72.9-23.1,103.5
			C813.3,663.5,813.3,689.4,806.7,714.1z M707.8,810.5L707.8,810.5C707.8,810.5,707.8,810.5,707.8,810.5
			C707.8,810.5,707.8,810.5,707.8,810.5z M702,773.9c-0.1,0-0.1,0-0.2,0l0,0l0.1-0.2C702,773.7,702,773.8,702,773.9
			C702,773.8,702,773.8,702,773.9z M701.2,774L701.2,774C701.2,774.1,701.2,774.1,701.2,774C701.2,774.1,701.2,774.1,701.2,774
			L701.2,774z M694.2,785.8L694.2,785.8L694.2,785.8L694.2,785.8z M692.2,776.3c-0.1,0-0.1,0-0.2,0l0-0.1c0.1,0,0.1,0,0.2,0
			L692.2,776.3z M682.9,778.7L682.9,778.7L682.9,778.7L682.9,778.7z M937.8,901c-4.3-8.7-8-14.8-10.8-18.2
			c-26.5-33.6-60.4-57.3-94.4-74.4c4.3-3.3,9.4-7,10.9-6.7c2.8,0.4,82.3,67.1,90.6,74.9C937.8,880,938.3,890.5,937.8,901z"/>
	</g>
	<g>
		<polygon points="682.9,778.7 682.9,778.8 682.9,778.7 		"/>
	</g>
	<g>
		<path d="M692.2,776.3c-0.1,0-0.1,0-0.2,0l0-0.1c0.1,0,0.1,0,0.2,0L692.2,776.3z"/>
	</g>
	<g>
		<polygon points="694.2,785.8 694.1,785.8 694.2,785.8 		"/>
	</g>
	<g>
		<polygon points="694.2,785.8 694.1,785.8 694.2,785.8 		"/>
	</g>
	<g>
		<path d="M707.8,810.5L707.8,810.5C707.8,810.5,707.8,810.5,707.8,810.5C707.8,810.5,707.8,810.5,707.8,810.5z"/>
	</g>
	<g>
		<path d="M692.2,776.3c-0.1,0-0.1,0-0.2,0l0-0.1c0.1,0,0.1,0,0.2,0L692.2,776.3z"/>
	</g>
	<g>
		<path class="st0" d="M253.9,1200c0,0.8-0.6,1.4-1.3,1.5c-0.1,0-0.1,0-0.2,0c-0.8,0-1.4-0.6-1.5-1.3l0-0.2H253.9z"/>
	</g>
	<g>
		<path class="st0" d="M943,1200C943,1200,943,1200.1,943,1200c-0.1,0.9-0.7,1.5-1.5,1.5h-0.1c-0.8-0.1-1.4-0.7-1.4-1.5H943z"/>
	</g>
	<g>
		<path d="M707.8,810.5L707.8,810.5C707.8,810.5,707.8,810.5,707.8,810.5C707.8,810.5,707.8,810.5,707.8,810.5z"/>
	</g>
	<g>
		<path d="M180.4,846.8c0,0.1,0,0.2,0,0.4c-0.9,1.5-1.8,3-2.6,4.6C178.6,850.1,179.5,848.4,180.4,846.8z"/>
	</g>
	<g>
		<path class="st0" d="M701.2,774L701.2,774C701.2,774.1,701.2,774.1,701.2,774C701.2,774.1,701.2,774.1,701.2,774L701.2,774z"/>
	</g>
	<g>
		<path class="st0" d="M702,773.9c-0.1,0-0.1,0-0.2,0l0,0l0.1-0.2C702,773.7,702,773.8,702,773.9C702,773.8,702,773.8,702,773.9z"/>
	</g>
	<g>
		<path d="M701.2,774C701.2,774.1,701.2,774.1,701.2,774C701.2,774.1,701.2,774.1,701.2,774L701.2,774L701.2,774z M707.8,810.5
			C707.8,810.5,707.8,810.5,707.8,810.5L707.8,810.5C707.8,810.5,707.8,810.5,707.8,810.5z M682.9,778.7L682.9,778.7L682.9,778.7
			L682.9,778.7z M707.8,810.5C707.8,810.5,707.8,810.5,707.8,810.5L707.8,810.5C707.8,810.5,707.8,810.5,707.8,810.5z M692.2,776.2
			c-0.1,0-0.1,0-0.2,0l0,0.1c0.1,0,0.1,0,0.2,0L692.2,776.2z M701.2,774C701.2,774.1,701.2,774.1,701.2,774
			C701.2,774.1,701.2,774.1,701.2,774L701.2,774L701.2,774z"/>
	</g>
	<g>
		<path d="M360.4,674.5C360.4,674.5,360.4,674.5,360.4,674.5L360.4,674.5C360.4,674.5,360.4,674.5,360.4,674.5z"/>
	</g>
	<g>
		<path d="M535.2,706.2c-0.3-0.2-0.6-0.5-0.9-0.7c0.3,0.2,0.6,0.4,0.9,0.6C535.2,706.1,535.2,706.2,535.2,706.2z"/>
	</g>
	<g>
		<polygon points="694.2,785.8 694.1,785.8 694.2,785.8 		"/>
	</g>
	<g>
		<path d="M707.8,810.5L707.8,810.5C707.8,810.5,707.8,810.5,707.8,810.5C707.8,810.5,707.8,810.5,707.8,810.5z"/>
	</g>
	<g>
		<path d="M701.2,774L701.2,774C701.2,774.1,701.2,774.1,701.2,774C701.2,774.1,701.2,774.1,701.2,774L701.2,774z"/>
	</g>
	<g>
		<path d="M702,773.9c-0.1,0-0.1,0-0.2,0l0,0C701.9,773.9,701.9,773.8,702,773.9C702,773.8,702,773.8,702,773.9z"/>
	</g>
	<g>
		<path class="st0" d="M716.2,993.5c-3.1,16.3-7.2,32.2-12.6,45.7c1.2,0.3,2.1,1.3,1.9,2.8c-0.4,2.4-0.7,4.8-1.1,7.2
			c-0.5,3.7-1,7.3-1.5,11c-1,7.5-1.8,15.1-2.2,22.7c0,0.5-0.1,1.1-0.1,1.6c-0.2,3.9-0.3,7.8-0.2,11.6c0,3.3,0.2,6.7,0.4,10
			c0,0.1,0,0.1,0,0.2c3.7,23.2,5.8,46.4,7.7,69.7c0.7,8,1.3,16.1,2,24.1h-11.7c-0.5-14.7-1-29.4-1.8-44.2c-0.8-16.2-2-32.5-4-48.7
			c0-0.2,0-0.4-0.1-0.6c-0.1-3.1-0.1-6.3-0.1-9.4c0.1-3.9,0.3-7.8,0.6-11.6c0.1-0.9,0.1-1.8,0.2-2.7c0.7-7.6,1.8-15.1,3-22.6
			c0.6-3.4,1.2-6.8,1.8-10.1v0c0.4-1.9,0.7-3.8,1.1-5.7c-11.9-11.4-27.1-25.1-44-40c-39.2-34.8-87.2-76-121-108
			c1.1,0.7,2.2,1.3,3.3,1.9c0.7,0.4,1.4,0.8,2.2,1.1c0,0,0,0,0.1,0c3.1,1.6,6.3,3.3,9.6,4.9c38.5,18.9,85.5,33.6,126.6,22.6
			c18.1-5.1,34.9-17.8,42.3-35.2c1-0.3,2.1-0.7,3.1-1c0.4-0.2,0.9-0.3,1.3-0.5c0.1,0,0.3-0.1,0.4-0.1
			C724.9,904.6,724.2,950.6,716.2,993.5z"/>
	</g>
	<g>
		<polygon class="st0" points="694.2,785.8 694.1,785.8 694.2,785.8 		"/>
	</g>
	<g>
		<polygon class="st0" points="682.9,778.7 682.9,778.8 682.9,778.7 		"/>
	</g>
	<g>
		<path class="st0" d="M692.2,776.3c-0.1,0-0.1,0-0.2,0l0-0.1c0.1,0,0.1,0,0.2,0L692.2,776.3z"/>
	</g>
	<g>
		<path class="st0" d="M522.1,695C522.1,695,522.1,695,522.1,695c-0.2-0.2-0.3-0.3-0.5-0.4C521.8,694.7,522,694.8,522.1,695z"/>
	</g>
	<g>
		<path class="st0" d="M535.2,706.2c-0.3-0.2-0.6-0.5-0.9-0.7c0.3,0.2,0.6,0.4,0.9,0.6C535.2,706.1,535.2,706.2,535.2,706.2z"/>
	</g>
	<g>
		<path class="st0" d="M680.8,752.1c-0.7,0-1.4,0-2.1,0c0-0.1-0.1-0.2-0.1-0.3C679.3,751.9,680,752,680.8,752.1z"/>
	</g>
	<g>
		<path class="st0" d="M537.2,719.8c-0.1-0.1-0.1-0.1-0.2-0.2c0,0,0-0.1,0-0.1C537.1,719.5,537.1,719.7,537.2,719.8z"/>
	</g>
	<g>
		<path class="st0" d="M691.8,384.7c-0.8-4.7-2.8-9.4-6.7-12.9c-11.8-10.6-60.4-20-89.8-6.3c-25.9,12.5,43.9,20.4,81.6,32.9
			C685.1,401.1,693.3,393.7,691.8,384.7z M685.5,629.8c-2.4-0.8-3.5-1.6-5.5-1.6c-7.5,0.8-13.3-3.9-18.8-7.1
			c-4.6-2.6-9.3-5.2-14.4-7c5.2,18.6,21.6,34.9,41.8,35.7c10.7,1.2,21.8-4.2,28.8-12.6C706.6,636.4,695.5,634.8,685.5,629.8z
			 M707.8,614.1c-14.5-5.1-26.3-14.5-40-21.2c-13.6-6.5-21.3-2-22.6,7.7c0.9,0.5,1.6,1.2,2.2,2.1c6.3,9,16.1,13.7,26.3,16.1
			c2.4,0.8,4.3,0.8,6.3,0.8c3.5,0,7,2.8,9,4.7c8.6,6.8,20.3,8.4,31.2,8.9c2.7-4.4,4.2-9.5,4.1-14.7
			C718.8,617.8,713.2,616,707.8,614.1z M848.6,377.6c-20.4-14.5-52.5-7.1-62,2.4c-3.1,3.1-4.7,7.5-5.1,11.8
			c-1.2,8.2,5.9,15.3,12.5,12.9C824.7,393.3,866.3,389.8,848.6,377.6z"/>
	</g>
	<g>
		<path d="M440.8,580.2c-0.1,0-0.1-0.1-0.2-0.1c0,0,0.1,0,0.1-0.1C440.7,580.1,440.8,580.1,440.8,580.2z"/>
	</g>
	<g>
		<polygon points="694.2,785.8 694.1,785.8 694.2,785.8 		"/>
	</g>
	<g>
		<path d="M692.2,776.3c-0.1,0-0.1,0-0.2,0l0-0.1c0.1,0,0.1,0,0.2,0L692.2,776.3z"/>
	</g>
	<g>
		<path d="M680.8,752.1c-0.7,0-1.4,0-2.1,0c0-0.1-0.1-0.2-0.1-0.3C679.3,751.9,680,752,680.8,752.1z"/>
	</g>
	<g>
		<path d="M701.2,774L701.2,774C701.2,774.1,701.2,774.1,701.2,774C701.2,774.1,701.2,774.1,701.2,774L701.2,774z"/>
	</g>
	<g>
		<path d="M707.8,810.5L707.8,810.5C707.8,810.5,707.8,810.5,707.8,810.5C707.8,810.5,707.8,810.5,707.8,810.5z"/>
	</g>
	<g>
		<polygon points="682.9,778.7 682.9,778.8 682.9,778.7 		"/>
	</g>
	<g>
		<path d="M522.1,695C522.1,695,522.1,695,522.1,695c-0.2-0.2-0.3-0.3-0.5-0.4C521.8,694.7,522,694.8,522.1,695z"/>
	</g>
	<g>
		<path d="M535.2,706.2c-0.3-0.2-0.6-0.5-0.9-0.7c0.3,0.2,0.6,0.4,0.9,0.6C535.2,706.1,535.2,706.2,535.2,706.2z"/>
	</g>
	<g>
		<path d="M680.8,752.1c-0.7,0-1.4,0-2.1,0c0-0.1-0.1-0.2-0.1-0.3C679.3,751.9,680,752,680.8,752.1z"/>
	</g>
	<g>
		<polygon points="694.2,785.8 694.1,785.8 694.2,785.8 		"/>
	</g>
	<g>
		<path d="M707.8,810.5L707.8,810.5C707.8,810.5,707.8,810.5,707.8,810.5C707.8,810.5,707.8,810.5,707.8,810.5z"/>
	</g>
	<g>
		<path class="st0" d="M440.8,580.2c-0.1,0-0.1-0.1-0.2-0.1c0,0,0.1,0,0.1-0.1C440.7,580.1,440.8,580.1,440.8,580.2z"/>
	</g>
	<g>
		<path class="st0" d="M455.3,540.4c-9-5.1-15.3-13.7-15.7-24.3c0.4-7.8,1.6-16.9-0.4-24.7c-1.2-7.5-9-9.4-14.9-9
			c-6.3,1.2-10.2,9-11.4,15.3c0,0.4-0.4,1.6-0.4,2c-0.4,2-3.5,2-4.3,0c-5.1-15.3,6.3-32.2,22.7-30.2c23.1,1.6,26.3,25.9,22,44.3
			c-2.3,7.8,0.8,14.9,5.1,21.6l0.8,1.2C460.8,538.8,457.7,541.9,455.3,540.4z"/>
	</g>
	<g>
		<path class="st0" d="M522.1,695C522.1,695,522.1,695,522.1,695c-0.2-0.2-0.3-0.3-0.5-0.4C521.8,694.7,522,694.8,522.1,695z"/>
	</g>
	<g>
		<path class="st0" d="M680.8,752.1c-0.7,0-1.4,0-2.1,0c0-0.1-0.1-0.2-0.1-0.3C679.3,751.9,680,752,680.8,752.1z"/>
	</g>
	<g>
		<path class="st0" d="M676.9,398.4c-37.6-12.6-107.5-20.4-81.6-32.9c29.4-13.7,78-4.3,89.8,6.3c3.9,3.5,5.9,8.2,6.7,12.9
			C693.3,393.7,685.1,401.1,676.9,398.4z"/>
	</g>
	<g>
		<path class="st0" d="M717.4,637.2c-6.9,8.4-18.1,13.7-28.8,12.6c-20.2-0.8-36.6-17-41.8-35.7c5.1,1.8,9.8,4.4,14.4,7
			c5.5,3.1,11.4,7.8,18.8,7.1c2,0,3.1,0.8,5.5,1.6C695.5,634.8,706.6,636.4,717.4,637.2z"/>
		<path class="st0" d="M724.4,618.5c0.1,5.2-1.5,10.2-4.1,14.7c-11-0.5-22.6-2-31.2-8.9c-2-2-5.5-4.7-9-4.7c-2,0-3.9,0-6.3-0.8
			c-10.2-2.3-20-7.1-26.3-16.1c-0.5-0.9-1.3-1.6-2.2-2.1c1.3-9.7,9-14.2,22.6-7.7c13.7,6.7,25.5,16.1,40,21.2
			C713.2,616,718.8,617.8,724.4,618.5z"/>
	</g>
	<g>
		<path class="st0" d="M794.1,404.7c-6.7,2.4-13.7-4.7-12.5-12.9c0.4-4.3,2-8.6,5.1-11.8c9.4-9.4,41.6-16.9,62-2.4
			C866.3,389.8,824.7,393.3,794.1,404.7z"/>
	</g>
	<g>
		<path d="M522.1,695C522.1,695,522.1,695,522.1,695c-0.2-0.2-0.3-0.3-0.5-0.4C521.8,694.7,522,694.8,522.1,695z"/>
	</g>
	<g>
		<path d="M537.2,719.8c-0.1-0.1-0.1-0.1-0.2-0.2c0,0,0-0.1,0-0.1C537.1,719.5,537.1,719.7,537.2,719.8z"/>
	</g>
	<g>
		<path class="st0" d="M440.8,580.2c-0.1,0-0.1-0.1-0.2-0.1c0,0,0.1,0,0.1-0.1C440.7,580.1,440.8,580.1,440.8,580.2z"/>
	</g>
	<g>
		<path class="st0" d="M848.6,327.8c-2.2-9.2-4.9-18.1-8.2-26.8c-16.4,0.6-40.7,19-66.3,15.5c-90.2-12.2-163.9-61.6-234.1-29
			c-77.7,36.3-4.5,157.7-53.9,194.2c0.2,1.3,0.4,2.6,0.6,3.9c0,1.5-1.5,2.4-2.8,2.2c-0.7-0.1-1.3-0.5-1.6-1.4
			c-9-23.1-28.6-45.1-54.9-44.7c-2.4-0.4-6.3,0.4-8.6,0.4c-6.7,0.4-12.2,2.7-17.2,7.5c-25.1,25.1-20.8,69.4-0.4,97.2
			c7.1,9.8,16.1,18.4,26.3,25.5c4.2,2.9,8.6,5.5,13.1,8c0,0,0.1,0,0.1-0.1c0,0,0.1,0.1,0.1,0.2c0.9,0.5,1.7,0.9,2.6,1.3
			c3.8,1.9,7.6,3.7,11.6,5.3c1,0.4,2.1,0.9,3.1,1.3c1,0.4,1.9,0.8,2.9,1.1c0.1,0,0.2,0.1,0.2,0.1c2.1,0.6,1.9,3.3,0.4,4.4
			c-0.4,0.3-1,0.4-1.6,0.3c-1.6-0.3-3.1-0.7-4.7-1.1c0.6,27.7,1.4,59.3-2.6,89.4c-2.9,21.8-8.5,42.8-18.5,61.1
			c-0.7,1.3-1.5,2.7-2.3,4c-2.1,3.5-4.4,6.9-6.9,10.2c0,0,0,0,0,0c-0.1,0.1-0.2,0.2-0.3,0.2c0,0-0.1,0.1-0.1,0.1
			c1.3,3.1,2.8,6.6,4.6,10.6c0.1-0.1,0.2-0.1,0.3-0.2c0.1,0,0.2-0.1,0.2-0.1c1.4-0.6,3.2-0.3,4.3,1.5c8.2,16.5,17.7,32.5,28.2,47.1
			c9.5,13.3,20.2,25.7,32.1,36.8c0.3,0.3,0.5,0.5,0.8,0.8c0,0,0,0,0,0c1.2,1.1,2.3,2.2,3.5,3.2c1.4,1.3,2.8,2.5,4.3,3.7
			c1.8,1.5,3.6,3,5.4,4.5c4,3.2,8.1,6.3,12.3,9.2c0,0,0,0,0,0c3.9,2.7,7.8,5.3,11.9,7.8c0,0,0,0,0,0c1,0.6,1.9,1.2,2.9,1.7
			c1,0.6,1.9,1.1,2.9,1.7c0.2,0.1,0.3,0.2,0.4,0.2c1,0.5,1.9,1.1,2.9,1.6C574,905.9,610.5,916,647.1,916c25.7-0.7,44-7.3,55-19.6
			c0.7-0.8,1.4-1.6,2-2.4c0.2-0.2,0.3-0.4,0.5-0.6c1.3-1.7,2.5-3.5,3.5-5.5c0.1-0.2,0.3-0.5,0.4-0.7c0.1-0.2,0.3-0.5,0.4-0.7
			c0.1-0.2,0.2-0.5,0.4-0.7c0.1-0.2,0.2-0.5,0.3-0.8c0.1-0.2,0.2-0.5,0.3-0.7c0.2-0.4,0.4-0.8,0.5-1.3c0,0,0-0.1,0.1-0.1
			c0-0.1,0.1-0.2,0.1-0.3c0.1-0.2,0.1-0.4,0.2-0.6c2.8-7.4,4.1-16,3.8-25.7c0,0,0,0,0,0c-0.2-7.3-1.3-15.3-3.3-23.9
			c-0.1,0-0.2,0-0.4,0.1c-1.6,0.4-2.7,0-3.9-0.8c-0.2-0.1-0.3-0.3-0.5-0.4c-4-3.5-6.2-7-8.7-11.2c-0.5-0.8-0.9-1.6-1.4-2.5
			c-0.2-0.3-0.4-0.7-0.6-1.1c-1.6-0.1-3.2-0.3-4.8-0.5c0,0,0,0,0,0c-6.9-0.7-13.7-1.7-20.4-3c0,0,0,0,0,0c-37-7-70.8-22.6-103.2-56
			h0c-10.2-10.6-20.3-22.9-30.3-37.3c-0.1-0.1-0.1-0.1-0.2-0.2c-9-7.9-17.5-16.9-25.4-27c-1.8-2.3-3.6-4.7-5.3-7.1
			c-1.6-2.4,1.6-5.1,3.5-2.8c3.5,3.7,7,7.2,10.5,10.6l0,0c0.4,0.4,0.9,0.8,1.3,1.3c0.1,0.2,0.3,0.3,0.5,0.4c4,3.7,8.1,7.2,12.2,10.5
			c0.3,0.2,0.6,0.4,0.9,0.6c0.3,0.2,0.6,0.4,0.9,0.6c15.7,9.4,33.7,21.2,54,30.8c27.3,10.3,56.8,14.7,88.5,14.7
			c0-0.1-0.1-0.2-0.1-0.3c0.8,0.1,1.5,0.2,2.3,0.3c0,0,0,0,0,0c2,0,4,0,6-0.1h0c2.4,0,4.8-0.1,7.3-0.2c0.6,0,1.1,0,1.7-0.1
			c17.7-0.9,46.9-3.2,71.3-10.6h0c15.4-4.7,28.9-11.5,36.3-21.3c1.4-1.8,2.5-3.7,3.4-5.7c6.7-24.7,6.7-50.6,10.6-76.5
			c4.3-30.6,16.1-73.3,23.1-103.5c7.8-34.1,14.5-68.6,14.9-103.5c0.4-17.6,0.4-35.3,0.4-52.9C856.5,360,852.9,344.7,848.6,327.8z
			 M455.3,540.4c-9-5.1-15.3-13.7-15.7-24.3c0.4-7.8,1.6-16.9-0.4-24.7c-1.2-7.5-9-9.4-14.9-9c-6.3,1.2-10.2,9-11.4,15.3
			c0,0.4-0.4,1.6-0.4,2c-0.4,2-3.5,2-4.3,0c-5.1-15.3,6.3-32.2,22.7-30.2c23.1,1.6,26.3,25.9,22,44.3c-2.3,7.8,0.8,14.9,5.1,21.6
			l0.8,1.2C460.8,538.8,457.7,541.9,455.3,540.4z M595.3,365.5c29.4-13.7,78-4.3,89.8,6.3c3.9,3.5,5.9,8.2,6.7,12.9
			c1.6,9-6.7,16.5-14.9,13.7C639.2,385.8,569.4,378,595.3,365.5z M607.1,466.6l0.4-11c0-0.7,0.1-1.3,0.2-1.9
			c-2.2,0.9-4.2,2.2-5.7,3.9c-1.2,1.6-3.9,1.2-3.9-1.2c0.4-7.8,7.1-13,13.3-16.1c12.2-6.3,29-5.1,40,3.1c3.9,2.4,17.3,16.9,10.2,20
			c-1.6,0.8-2.4,0.4-3.5-0.4c-5.5-3.7-11.3-6.9-17.3-9.1c0.2,1.2,0.2,2.4,0.1,3.6l-0.4,11c-0.4,9-8.2,16.1-17.6,15.7
			C613.3,483.9,606.3,476,607.1,466.6z M738.4,617.2c-0.9,0.3-1.8,0.6-2.7,0.8c-1.7,11.3-9.1,19.6-16.9,26.7
			c-17.2,14.1-43.5,11-60.8-2c-13.3-10.6-24.3-27.5-22-45.5c0.8-7.8,8.2-16.9,16.5-17.2c19.2-1.6,30.6,11.4,45.5,20
			c8.3,4.7,17.4,10.2,26.9,12.6c2.3-4,9.4-4.3,11.1,1.2c0.3,0,0.6,0,0.9-0.1C739.2,612.9,740.8,616,738.4,617.2z M812.9,467.8
			c-2.4-2.8-5.3-5.1-8.5-6.6c0.3,1.3,0.4,2.6,0.3,3.9l-0.4,10.2c-0.4,8.6-7.8,15.3-16.5,14.9c-1.6-0.1-3.1-0.4-4.6-0.9
			c4.8,11.3,10.3,22.4,16.3,33.1c12.2,29.8-19.2,58-47.1,56.9c-3.1,0-3.5-4.3-0.8-5.1c17.6-5.5,33.7-17.2,36.5-35.3
			c1.2-5.5-0.4-10.2-3.1-14.9c-12.9-24.3-20.8-52.2-18.8-79.6c0-2,2.7-2,2.7,0c0.9,4.3,1.9,8.6,3.1,12.8c5.3-10.2,20.8-13.3,31-8.5
			c7.1,3.1,12.1,9.4,14.1,16.9C818,467.8,814.5,469.8,812.9,467.8z M794.1,404.7c-6.7,2.4-13.7-4.7-12.5-12.9
			c0.4-4.3,2-8.6,5.1-11.8c9.4-9.4,41.6-16.9,62-2.4C866.3,389.8,824.7,393.3,794.1,404.7z"/>
	</g>
	<g>
		<path class="st0" d="M455.3,540.4c-9-5.1-15.3-13.7-15.7-24.3c0.4-7.8,1.6-16.9-0.4-24.7c-1.2-7.5-9-9.4-14.9-9
			c-6.3,1.2-10.2,9-11.4,15.3c0,0.4-0.4,1.6-0.4,2c-0.4,2-3.5,2-4.3,0c-5.1-15.3,6.3-32.2,22.7-30.2c23.1,1.6,26.3,25.9,22,44.3
			c-2.3,7.8,0.8,14.9,5.1,21.6l0.8,1.2C460.8,538.8,457.7,541.9,455.3,540.4z"/>
	</g>
	<g>
		<path d="M455.3,540.4c-9-5.1-15.3-13.7-15.7-24.3c0.4-7.8,1.6-16.9-0.4-24.7c-1.2-7.5-9-9.4-14.9-9c-6.3,1.2-10.2,9-11.4,15.3
			c0,0.4-0.4,1.6-0.4,2c-0.4,2-3.5,2-4.3,0c-5.1-15.3,6.3-32.2,22.7-30.2c23.1,1.6,26.3,25.9,22,44.3c-2.3,7.8,0.8,14.9,5.1,21.6
			l0.8,1.2C460.8,538.8,457.7,541.9,455.3,540.4z"/>
	</g>
	<g>
		<path class="st0" d="M717.4,637.2c-6.9,8.4-18.1,13.7-28.8,12.6c-20.2-0.8-36.6-17-41.8-35.7c5.1,1.8,9.8,4.4,14.4,7
			c5.5,3.1,11.4,7.8,18.8,7.1c2,0,3.1,0.8,5.5,1.6C695.5,634.8,706.6,636.4,717.4,637.2z"/>
		<path class="st0" d="M724.4,618.5c0.1,5.2-1.5,10.2-4.1,14.7c-11-0.5-22.6-2-31.2-8.9c-2-2-5.5-4.7-9-4.7c-2,0-3.9,0-6.3-0.8
			c-10.2-2.3-20-7.1-26.3-16.1c-0.5-0.9-1.3-1.6-2.2-2.1c1.3-9.7,9-14.2,22.6-7.7c13.7,6.7,25.5,16.1,40,21.2
			C713.2,616,718.8,617.8,724.4,618.5z"/>
	</g>
	<g>
		<path d="M736.9,613.7c-0.3,0-0.6,0-0.9,0.1c-1.7-5.5-8.8-5.2-11.1-1.2c-9.5-2.4-18.5-7.9-26.9-12.6c-14.9-8.6-26.3-21.6-45.5-20
			c-8.2,0.4-15.7,9.4-16.5,17.2c-2.4,18,8.6,34.9,22,45.5c17.2,12.9,43.5,16.1,60.8,2c7.8-7,15.2-15.4,16.9-26.7
			c0.9-0.2,1.8-0.5,2.7-0.8C740.8,616,739.2,612.9,736.9,613.7z M688.6,649.8c-20.2-0.8-36.6-17-41.8-35.7c5.1,1.8,9.8,4.4,14.4,7
			c5.5,3.1,11.4,7.8,18.8,7.1c2,0,3.1,0.8,5.5,1.6c10,5,21.1,6.6,31.9,7.4C710.5,645.6,699.3,650.9,688.6,649.8z M720.3,633.2
			c-11-0.5-22.6-2-31.2-8.9c-2-2-5.5-4.7-9-4.7c-2,0-3.9,0-6.3-0.8c-10.2-2.3-20-7.1-26.3-16.1c-0.5-0.9-1.3-1.6-2.2-2.1
			c1.3-9.7,9-14.2,22.6-7.7c13.7,6.7,25.5,16.1,40,21.2c5.4,2,10.9,3.8,16.5,4.4C724.5,623.7,722.9,628.8,720.3,633.2z"/>
	</g>
	<g>
		<path d="M661.6,463.5c-1.6,0.8-2.4,0.4-3.5-0.4c-5.5-3.7-11.3-6.9-17.3-9.1c0.2,1.2,0.2,2.4,0.1,3.6l-0.4,11
			c-0.4,9-8.2,16.1-17.6,15.7c-9.4-0.4-16.5-8.2-15.7-17.7l0.4-11c0-0.7,0.1-1.3,0.2-1.9c-2.2,0.9-4.2,2.2-5.7,3.9
			c-1.2,1.6-3.9,1.2-3.9-1.2c0.4-7.8,7.1-13,13.3-16.1c12.2-6.3,29-5.1,40,3.1C655.3,445.8,668.6,460.4,661.6,463.5z"/>
	</g>
	<g>
		<path d="M812.9,467.8c-2.4-2.8-5.3-5.1-8.5-6.6c0.3,1.3,0.4,2.6,0.3,3.9l-0.4,10.2c-0.4,8.6-7.8,15.3-16.5,14.9
			c-1.6-0.1-3.1-0.4-4.6-0.9c4.8,11.3,10.3,22.4,16.3,33.1c12.2,29.8-19.2,58-47.1,56.9c-3.1,0-3.5-4.3-0.8-5.1
			c17.6-5.5,33.7-17.2,36.5-35.3c1.2-5.5-0.4-10.2-3.1-14.9c-12.9-24.3-20.8-52.2-18.8-79.6c0-2,2.7-2,2.7,0
			c0.9,4.3,1.9,8.6,3.1,12.8c5.3-10.2,20.8-13.3,31-8.5c7.1,3.1,12.1,9.4,14.1,16.9C818,467.8,814.5,469.8,812.9,467.8z"/>
	</g>
	<g>
		<path d="M676.9,398.4c-37.6-12.6-107.5-20.4-81.6-32.9c29.4-13.7,78-4.3,89.8,6.3c3.9,3.5,5.9,8.2,6.7,12.9
			C693.3,393.7,685.1,401.1,676.9,398.4z"/>
	</g>
	<g>
		<path d="M794.1,404.7c-6.7,2.4-13.7-4.7-12.5-12.9c0.4-4.3,2-8.6,5.1-11.8c9.4-9.4,41.6-16.9,62-2.4
			C866.3,389.8,824.7,393.3,794.1,404.7z"/>
	</g>
</g>
</svg>
